FFmpeg version SVN-r25716, Copyright (c) 2000-2010 the FFmpeg developers  built on Nov 10 2010 12:23:18 with gcc 4.1.2 20080704 (Red Hat 4.1.2-48)  configuration: --enable-libmp3lame --enable-shared --disable-mmx --arch=x86_64  libavutil     50.33. 0 / 50.33. 0  libavcore      0.12. 1 /  0.12. 1  libavcodec    52.94. 4 / 52.94. 4  libavformat   52.84. 0 / 52.84. 0  libavdevice   52. 2. 2 / 52. 2. 2  libavfilter    1.59. 0 /  1.59. 0  libswscale     0.12. 0 /  0.12. 0Seems stream 0 codec frame rate differs from container frame rate: 600.00 (600/1) -> 10.00 (10/1)Input #0, mov,mp4,m4a,3gp,3g2,mj2, from '/RAID10/data/converted_video_files/12017.mov':  Duration: 00:00:09.80, start: 0.000000, bitrate: 4791 kb/s    Stream #0.0(eng): Video: svq3, yuvj420p, 551x275, 4790 kb/s, 10 fps, 10 tbr, 600 tbn, 600 tbc[buffer @ 0x12c5ce60] w:551 h:275 pixfmt:yuvj420p[ffsink @ 0x12c5d0d0] auto-inserting filter 'auto-inserted scaler 0' between the filter 'src' and the filter 'out'[scale @ 0x12c5a220] w:551 h:275 fmt:yuvj420p -> w:551 h:275 fmt:yuv420p flags:0x4Output #0, flv, to '/RAID10/data/converted_video_files/12017.flv':  Metadata:    encoder         : Lavf52.84.0    Stream #0.0(eng): Video: flv, yuv420p, 551x275, q=2-31, 600 kb/s, 1k tbn, 24 tbcStream mapping:  Stream #0.0 -> #0.0Press [q] to stop encodingframe=    6 fps=  0 q=4.0 size=     131kB time=0.54 bitrate=1976.2kbits/s    frame=   19 fps= 15 q=6.6 size=     194kB time=1.83 bitrate= 867.0kbits/s    frame=   40 fps= 23 q=6.4 size=     304kB time=3.96 bitrate= 628.4kbits/s    frame=   63 fps= 28 q=6.4 size=     450kB time=6.25 bitrate= 589.5kbits/s    frame=   93 fps= 34 q=6.1 size=     571kB time=9.25 bitrate= 505.8kbits/s    frame=   98 fps= 35 q=6.0 Lsize=     571kB time=9.75 bitrate= 479.9kbits/s    video:569kB audio:0kB global headers:0kB muxing overhead 0.304947%